<mxfile host="Electron" agent="Mozilla/5.0 (Windows NT 10.0; Win64; x64) AppleWebKit/537.36 (KHTML, like Gecko) draw.io/26.0.16 Chrome/132.0.6834.196 Electron/34.2.0 Safari/537.36" version="26.0.16">
  <diagram name="Page-1" id="ge3sh5drD2BnSH2Pjrby">
    <mxGraphModel dx="1797" dy="1115" grid="1" gridSize="10" guides="1" tooltips="1" connect="1" arrows="1" fold="1" page="1" pageScale="1" pageWidth="850" pageHeight="1100" math="0" shadow="0">
      <root>
        <mxCell id="0" />
        <mxCell id="1" parent="0" />
        <mxCell id="9mjmYlbsUAJnvYcBJI2K-1" value="Client" style="swimlane;fontStyle=1;align=center;verticalAlign=top;childLayout=stackLayout;horizontal=1;startSize=26;horizontalStack=0;resizeParent=1;resizeParentMax=0;resizeLast=0;collapsible=1;marginBottom=0;whiteSpace=wrap;html=1;" vertex="1" parent="1">
          <mxGeometry x="-370" y="360" width="180" height="170" as="geometry" />
        </mxCell>
        <mxCell id="9mjmYlbsUAJnvYcBJI2K-2" value="- id: int&lt;div&gt;- arrivalTime: int&lt;/div&gt;&lt;div&gt;- serviceTime: int&lt;/div&gt;" style="text;strokeColor=none;fillColor=none;align=left;verticalAlign=top;spacingLeft=4;spacingRight=4;overflow=hidden;rotatable=0;points=[[0,0.5],[1,0.5]];portConstraint=eastwest;whiteSpace=wrap;html=1;" vertex="1" parent="9mjmYlbsUAJnvYcBJI2K-1">
          <mxGeometry y="26" width="180" height="54" as="geometry" />
        </mxCell>
        <mxCell id="9mjmYlbsUAJnvYcBJI2K-3" value="" style="line;strokeWidth=1;fillColor=none;align=left;verticalAlign=middle;spacingTop=-1;spacingLeft=3;spacingRight=3;rotatable=0;labelPosition=right;points=[];portConstraint=eastwest;strokeColor=inherit;" vertex="1" parent="9mjmYlbsUAJnvYcBJI2K-1">
          <mxGeometry y="80" width="180" height="8" as="geometry" />
        </mxCell>
        <mxCell id="9mjmYlbsUAJnvYcBJI2K-4" value="+ getId(): int&lt;div&gt;+ getArrivalTime(): int&lt;/div&gt;&lt;div&gt;+ getServiceTime(): int&lt;/div&gt;&lt;div&gt;+ decrementServiceTime(): int&lt;/div&gt;&lt;div&gt;+ toString(): String&lt;/div&gt;" style="text;strokeColor=none;fillColor=none;align=left;verticalAlign=top;spacingLeft=4;spacingRight=4;overflow=hidden;rotatable=0;points=[[0,0.5],[1,0.5]];portConstraint=eastwest;whiteSpace=wrap;html=1;" vertex="1" parent="9mjmYlbsUAJnvYcBJI2K-1">
          <mxGeometry y="88" width="180" height="82" as="geometry" />
        </mxCell>
        <mxCell id="9mjmYlbsUAJnvYcBJI2K-5" value="Server" style="swimlane;fontStyle=1;align=center;verticalAlign=top;childLayout=stackLayout;horizontal=1;startSize=26;horizontalStack=0;resizeParent=1;resizeParentMax=0;resizeLast=0;collapsible=1;marginBottom=0;whiteSpace=wrap;html=1;" vertex="1" parent="1">
          <mxGeometry x="-640" y="360" width="230" height="240" as="geometry" />
        </mxCell>
        <mxCell id="9mjmYlbsUAJnvYcBJI2K-6" value="- i: static int&lt;div&gt;- id: int&lt;/div&gt;&lt;div&gt;- clients: BlockingQueue&amp;lt;Client&amp;gt;&amp;nbsp;&lt;/div&gt;&lt;div&gt;- waitingPeriod: AtomicInteger&lt;/div&gt;" style="text;strokeColor=none;fillColor=none;align=left;verticalAlign=top;spacingLeft=4;spacingRight=4;overflow=hidden;rotatable=0;points=[[0,0.5],[1,0.5]];portConstraint=eastwest;whiteSpace=wrap;html=1;" vertex="1" parent="9mjmYlbsUAJnvYcBJI2K-5">
          <mxGeometry y="26" width="230" height="74" as="geometry" />
        </mxCell>
        <mxCell id="9mjmYlbsUAJnvYcBJI2K-7" value="" style="line;strokeWidth=1;fillColor=none;align=left;verticalAlign=middle;spacingTop=-1;spacingLeft=3;spacingRight=3;rotatable=0;labelPosition=right;points=[];portConstraint=eastwest;strokeColor=inherit;" vertex="1" parent="9mjmYlbsUAJnvYcBJI2K-5">
          <mxGeometry y="100" width="230" height="8" as="geometry" />
        </mxCell>
        <mxCell id="9mjmYlbsUAJnvYcBJI2K-8" value="+ getWaitingPeriod(): int&lt;div&gt;+ addWaitingPeriod(period: int): void&lt;/div&gt;&lt;div&gt;+ getNumberOfClients(): int&lt;/div&gt;&lt;div&gt;+ addClients(client: Client): void&lt;/div&gt;&lt;div&gt;+ removeClient(client: Client): void&lt;/div&gt;&lt;div&gt;+ run(): void&lt;/div&gt;&lt;div&gt;+ getClients(): ArrayList&amp;lt;Client&amp;gt;&lt;/div&gt;&lt;div&gt;+ toString(): String&lt;/div&gt;" style="text;strokeColor=none;fillColor=none;align=left;verticalAlign=top;spacingLeft=4;spacingRight=4;overflow=hidden;rotatable=0;points=[[0,0.5],[1,0.5]];portConstraint=eastwest;whiteSpace=wrap;html=1;" vertex="1" parent="9mjmYlbsUAJnvYcBJI2K-5">
          <mxGeometry y="108" width="230" height="132" as="geometry" />
        </mxCell>
        <mxCell id="9mjmYlbsUAJnvYcBJI2K-10" value="QueueStrategy" style="swimlane;fontStyle=1;align=center;verticalAlign=top;childLayout=stackLayout;horizontal=1;startSize=26;horizontalStack=0;resizeParent=1;resizeParentMax=0;resizeLast=0;collapsible=1;marginBottom=0;whiteSpace=wrap;html=1;" vertex="1" parent="1">
          <mxGeometry x="280" y="220" width="180" height="80" as="geometry" />
        </mxCell>
        <mxCell id="9mjmYlbsUAJnvYcBJI2K-12" value="" style="line;strokeWidth=1;fillColor=none;align=left;verticalAlign=middle;spacingTop=-1;spacingLeft=3;spacingRight=3;rotatable=0;labelPosition=right;points=[];portConstraint=eastwest;strokeColor=inherit;" vertex="1" parent="9mjmYlbsUAJnvYcBJI2K-10">
          <mxGeometry y="26" width="180" height="8" as="geometry" />
        </mxCell>
        <mxCell id="9mjmYlbsUAJnvYcBJI2K-13" value="+ addClient(servers: List&amp;lt;Server&amp;gt;, c: Client): void" style="text;strokeColor=none;fillColor=none;align=left;verticalAlign=top;spacingLeft=4;spacingRight=4;overflow=hidden;rotatable=0;points=[[0,0.5],[1,0.5]];portConstraint=eastwest;whiteSpace=wrap;html=1;" vertex="1" parent="9mjmYlbsUAJnvYcBJI2K-10">
          <mxGeometry y="34" width="180" height="46" as="geometry" />
        </mxCell>
        <mxCell id="9mjmYlbsUAJnvYcBJI2K-14" value="TimeStrategy" style="swimlane;fontStyle=1;align=center;verticalAlign=top;childLayout=stackLayout;horizontal=1;startSize=26;horizontalStack=0;resizeParent=1;resizeParentMax=0;resizeLast=0;collapsible=1;marginBottom=0;whiteSpace=wrap;html=1;" vertex="1" parent="1">
          <mxGeometry x="60" y="220" width="180" height="70" as="geometry" />
        </mxCell>
        <mxCell id="9mjmYlbsUAJnvYcBJI2K-16" value="" style="line;strokeWidth=1;fillColor=none;align=left;verticalAlign=middle;spacingTop=-1;spacingLeft=3;spacingRight=3;rotatable=0;labelPosition=right;points=[];portConstraint=eastwest;strokeColor=inherit;" vertex="1" parent="9mjmYlbsUAJnvYcBJI2K-14">
          <mxGeometry y="26" width="180" height="8" as="geometry" />
        </mxCell>
        <mxCell id="9mjmYlbsUAJnvYcBJI2K-17" value="+ addClient(servers: List&amp;lt;Server&amp;gt;, c: Client): void" style="text;strokeColor=none;fillColor=none;align=left;verticalAlign=top;spacingLeft=4;spacingRight=4;overflow=hidden;rotatable=0;points=[[0,0.5],[1,0.5]];portConstraint=eastwest;whiteSpace=wrap;html=1;" vertex="1" parent="9mjmYlbsUAJnvYcBJI2K-14">
          <mxGeometry y="34" width="180" height="36" as="geometry" />
        </mxCell>
        <mxCell id="9mjmYlbsUAJnvYcBJI2K-18" value="Scheduler" style="swimlane;fontStyle=1;align=center;verticalAlign=top;childLayout=stackLayout;horizontal=1;startSize=26;horizontalStack=0;resizeParent=1;resizeParentMax=0;resizeLast=0;collapsible=1;marginBottom=0;whiteSpace=wrap;html=1;" vertex="1" parent="1">
          <mxGeometry x="-515" y="105" width="260" height="170" as="geometry" />
        </mxCell>
        <mxCell id="9mjmYlbsUAJnvYcBJI2K-19" value="- servers: List&amp;lt;Server&amp;gt;&lt;div&gt;- nrOfServers: int&lt;/div&gt;&lt;div&gt;- nrOfClients: int&lt;/div&gt;&lt;div&gt;- strategy: Strategy&lt;/div&gt;" style="text;strokeColor=none;fillColor=none;align=left;verticalAlign=top;spacingLeft=4;spacingRight=4;overflow=hidden;rotatable=0;points=[[0,0.5],[1,0.5]];portConstraint=eastwest;whiteSpace=wrap;html=1;" vertex="1" parent="9mjmYlbsUAJnvYcBJI2K-18">
          <mxGeometry y="26" width="260" height="64" as="geometry" />
        </mxCell>
        <mxCell id="9mjmYlbsUAJnvYcBJI2K-20" value="" style="line;strokeWidth=1;fillColor=none;align=left;verticalAlign=middle;spacingTop=-1;spacingLeft=3;spacingRight=3;rotatable=0;labelPosition=right;points=[];portConstraint=eastwest;strokeColor=inherit;" vertex="1" parent="9mjmYlbsUAJnvYcBJI2K-18">
          <mxGeometry y="90" width="260" height="8" as="geometry" />
        </mxCell>
        <mxCell id="9mjmYlbsUAJnvYcBJI2K-21" value="+ changeStrategy(policy: SelectionPolicy): void&lt;div&gt;+ dispatchClient(client: Client): void&lt;/div&gt;&lt;div&gt;+ getServers(): List&amp;lt;Server&amp;gt;&lt;/div&gt;" style="text;strokeColor=none;fillColor=none;align=left;verticalAlign=top;spacingLeft=4;spacingRight=4;overflow=hidden;rotatable=0;points=[[0,0.5],[1,0.5]];portConstraint=eastwest;whiteSpace=wrap;html=1;" vertex="1" parent="9mjmYlbsUAJnvYcBJI2K-18">
          <mxGeometry y="98" width="260" height="72" as="geometry" />
        </mxCell>
        <mxCell id="9mjmYlbsUAJnvYcBJI2K-22" value="SimulationManager" style="swimlane;fontStyle=1;align=center;verticalAlign=top;childLayout=stackLayout;horizontal=1;startSize=26;horizontalStack=0;resizeParent=1;resizeParentMax=0;resizeLast=0;collapsible=1;marginBottom=0;whiteSpace=wrap;html=1;" vertex="1" parent="1">
          <mxGeometry x="-310" y="790" width="350" height="340" as="geometry" />
        </mxCell>
        <mxCell id="9mjmYlbsUAJnvYcBJI2K-23" value="- numberOfServers: int&lt;div&gt;- numberOfClients: int&lt;/div&gt;&lt;div&gt;- timeLimit: int&lt;/div&gt;&lt;div&gt;- minSerTime: int&lt;/div&gt;&lt;div&gt;- maxSerTime: int&lt;/div&gt;&lt;div&gt;- minArrTime: int&lt;/div&gt;&lt;div&gt;- maxArrTime: int&lt;/div&gt;&lt;div&gt;- textArea: JTextArea&lt;/div&gt;&lt;div&gt;- selectionPolicy: SelectionPolicy&lt;/div&gt;&lt;div&gt;- scheduler: Scheduler&lt;/div&gt;&lt;div&gt;- generatedClient: List&amp;lt;Client&amp;gt;&lt;/div&gt;&lt;div&gt;- random: Random&lt;/div&gt;" style="text;strokeColor=none;fillColor=none;align=left;verticalAlign=top;spacingLeft=4;spacingRight=4;overflow=hidden;rotatable=0;points=[[0,0.5],[1,0.5]];portConstraint=eastwest;whiteSpace=wrap;html=1;" vertex="1" parent="9mjmYlbsUAJnvYcBJI2K-22">
          <mxGeometry y="26" width="350" height="184" as="geometry" />
        </mxCell>
        <mxCell id="9mjmYlbsUAJnvYcBJI2K-24" value="" style="line;strokeWidth=1;fillColor=none;align=left;verticalAlign=middle;spacingTop=-1;spacingLeft=3;spacingRight=3;rotatable=0;labelPosition=right;points=[];portConstraint=eastwest;strokeColor=inherit;" vertex="1" parent="9mjmYlbsUAJnvYcBJI2K-22">
          <mxGeometry y="210" width="350" height="8" as="geometry" />
        </mxCell>
        <mxCell id="9mjmYlbsUAJnvYcBJI2K-25" value="+ selectStrategy(strategy: String): void&lt;div&gt;+ setTextArea(textArea: JTextArea) void&lt;div&gt;+ getTextArea(): String&lt;/div&gt;&lt;div&gt;- updateTextArea(text: String): void&lt;/div&gt;&lt;div&gt;- generateNRandomClient(): void&lt;/div&gt;&lt;div&gt;+ run(): void&lt;/div&gt;&lt;div&gt;- allServersAreEmpty(): boolean&lt;/div&gt;&lt;div&gt;- saveStringFile(strToSave: String, fileName: String): static void&lt;/div&gt;&lt;/div&gt;" style="text;strokeColor=none;fillColor=none;align=left;verticalAlign=top;spacingLeft=4;spacingRight=4;overflow=hidden;rotatable=0;points=[[0,0.5],[1,0.5]];portConstraint=eastwest;whiteSpace=wrap;html=1;" vertex="1" parent="9mjmYlbsUAJnvYcBJI2K-22">
          <mxGeometry y="218" width="350" height="122" as="geometry" />
        </mxCell>
        <mxCell id="9mjmYlbsUAJnvYcBJI2K-27" value="GUI" style="swimlane;fontStyle=1;align=center;verticalAlign=top;childLayout=stackLayout;horizontal=1;startSize=26;horizontalStack=0;resizeParent=1;resizeParentMax=0;resizeLast=0;collapsible=1;marginBottom=0;whiteSpace=wrap;html=1;" vertex="1" parent="1">
          <mxGeometry x="250" y="710" width="250" height="60" as="geometry" />
        </mxCell>
        <mxCell id="9mjmYlbsUAJnvYcBJI2K-28" value="" style="line;strokeWidth=1;fillColor=none;align=left;verticalAlign=middle;spacingTop=-1;spacingLeft=3;spacingRight=3;rotatable=0;labelPosition=right;points=[];portConstraint=eastwest;strokeColor=inherit;" vertex="1" parent="9mjmYlbsUAJnvYcBJI2K-27">
          <mxGeometry y="26" width="250" height="8" as="geometry" />
        </mxCell>
        <mxCell id="9mjmYlbsUAJnvYcBJI2K-29" value="+ main(args: String[]): static void" style="text;strokeColor=none;fillColor=none;align=left;verticalAlign=top;spacingLeft=4;spacingRight=4;overflow=hidden;rotatable=0;points=[[0,0.5],[1,0.5]];portConstraint=eastwest;whiteSpace=wrap;html=1;" vertex="1" parent="9mjmYlbsUAJnvYcBJI2K-27">
          <mxGeometry y="34" width="250" height="26" as="geometry" />
        </mxCell>
        <mxCell id="9mjmYlbsUAJnvYcBJI2K-35" value="&amp;lt;&amp;lt;enumeration&amp;gt;&amp;gt; SelectionPolicy" style="swimlane;fontStyle=1;align=center;verticalAlign=middle;childLayout=stackLayout;horizontal=1;startSize=29;horizontalStack=0;resizeParent=1;resizeParentMax=0;resizeLast=0;collapsible=0;marginBottom=0;html=1;whiteSpace=wrap;" vertex="1" parent="1">
          <mxGeometry x="-810" y="50" width="160" height="70" as="geometry" />
        </mxCell>
        <mxCell id="9mjmYlbsUAJnvYcBJI2K-36" value="SHORTEST_QUEUE, SHORTEST_TIME" style="text;html=1;strokeColor=none;fillColor=none;align=center;verticalAlign=middle;spacingLeft=4;spacingRight=4;overflow=hidden;rotatable=0;points=[[0,0.5],[1,0.5]];portConstraint=eastwest;whiteSpace=wrap;" vertex="1" parent="9mjmYlbsUAJnvYcBJI2K-35">
          <mxGeometry y="29" width="160" height="41" as="geometry" />
        </mxCell>
        <mxCell id="9mjmYlbsUAJnvYcBJI2K-38" value="&amp;lt;&amp;lt;interface&amp;gt;&amp;gt; Strategy" style="swimlane;fontStyle=1;align=center;verticalAlign=middle;childLayout=stackLayout;horizontal=1;startSize=29;horizontalStack=0;resizeParent=1;resizeParentMax=0;resizeLast=0;collapsible=0;marginBottom=0;html=1;whiteSpace=wrap;" vertex="1" parent="1">
          <mxGeometry x="200" y="70" width="170" height="80" as="geometry" />
        </mxCell>
        <mxCell id="9mjmYlbsUAJnvYcBJI2K-39" value="addClient(servers: List&amp;lt;Server&amp;gt;, c: Client): void" style="text;html=1;strokeColor=none;fillColor=none;align=center;verticalAlign=middle;spacingLeft=4;spacingRight=4;overflow=hidden;rotatable=0;points=[[0,0.5],[1,0.5]];portConstraint=eastwest;whiteSpace=wrap;" vertex="1" parent="9mjmYlbsUAJnvYcBJI2K-38">
          <mxGeometry y="29" width="170" height="51" as="geometry" />
        </mxCell>
        <mxCell id="9mjmYlbsUAJnvYcBJI2K-41" value="" style="endArrow=block;dashed=1;endFill=0;endSize=12;html=1;rounded=0;exitX=0.5;exitY=0;exitDx=0;exitDy=0;" edge="1" parent="1" source="9mjmYlbsUAJnvYcBJI2K-14">
          <mxGeometry width="160" relative="1" as="geometry">
            <mxPoint x="160" y="350" as="sourcePoint" />
            <mxPoint x="240" y="150" as="targetPoint" />
          </mxGeometry>
        </mxCell>
        <mxCell id="9mjmYlbsUAJnvYcBJI2K-42" value="" style="endArrow=block;dashed=1;endFill=0;endSize=12;html=1;rounded=0;exitX=0.5;exitY=0;exitDx=0;exitDy=0;entryX=0.706;entryY=0.994;entryDx=0;entryDy=0;entryPerimeter=0;" edge="1" parent="1" source="9mjmYlbsUAJnvYcBJI2K-10" target="9mjmYlbsUAJnvYcBJI2K-39">
          <mxGeometry width="160" relative="1" as="geometry">
            <mxPoint x="285" y="180" as="sourcePoint" />
            <mxPoint x="291" y="149" as="targetPoint" />
          </mxGeometry>
        </mxCell>
        <mxCell id="9mjmYlbsUAJnvYcBJI2K-45" value="" style="endArrow=diamondThin;endFill=0;endSize=24;html=1;rounded=0;exitX=1;exitY=0.25;exitDx=0;exitDy=0;entryX=0.25;entryY=0;entryDx=0;entryDy=0;" edge="1" parent="1" source="9mjmYlbsUAJnvYcBJI2K-35" target="9mjmYlbsUAJnvYcBJI2K-18">
          <mxGeometry width="160" relative="1" as="geometry">
            <mxPoint x="-570" y="-90" as="sourcePoint" />
            <mxPoint x="-567" y="38" as="targetPoint" />
            <Array as="points">
              <mxPoint x="-450" y="68" />
            </Array>
          </mxGeometry>
        </mxCell>
        <mxCell id="9mjmYlbsUAJnvYcBJI2K-46" value="" style="endArrow=diamondThin;endFill=0;endSize=24;html=1;rounded=0;exitX=0.5;exitY=0;exitDx=0;exitDy=0;entryX=0.152;entryY=1.002;entryDx=0;entryDy=0;entryPerimeter=0;" edge="1" parent="1" source="9mjmYlbsUAJnvYcBJI2K-5" target="9mjmYlbsUAJnvYcBJI2K-21">
          <mxGeometry width="160" relative="1" as="geometry">
            <mxPoint x="-480" y="-70" as="sourcePoint" />
            <mxPoint x="-477" y="58" as="targetPoint" />
            <Array as="points" />
          </mxGeometry>
        </mxCell>
        <mxCell id="9mjmYlbsUAJnvYcBJI2K-47" value="" style="endArrow=diamondThin;endFill=0;endSize=24;html=1;rounded=0;exitX=0.5;exitY=0;exitDx=0;exitDy=0;" edge="1" parent="1" source="9mjmYlbsUAJnvYcBJI2K-1">
          <mxGeometry width="160" relative="1" as="geometry">
            <mxPoint x="-545" y="380" as="sourcePoint" />
            <mxPoint x="-317" y="275" as="targetPoint" />
            <Array as="points" />
          </mxGeometry>
        </mxCell>
        <mxCell id="9mjmYlbsUAJnvYcBJI2K-50" value="" style="endArrow=diamondThin;endFill=0;endSize=24;html=1;rounded=0;entryX=0.5;entryY=0;entryDx=0;entryDy=0;" edge="1" parent="1" source="9mjmYlbsUAJnvYcBJI2K-36" target="9mjmYlbsUAJnvYcBJI2K-22">
          <mxGeometry width="160" relative="1" as="geometry">
            <mxPoint x="-830" y="236.5" as="sourcePoint" />
            <mxPoint x="-630" y="273.5" as="targetPoint" />
            <Array as="points">
              <mxPoint x="-720" y="720" />
              <mxPoint x="-135" y="720" />
            </Array>
          </mxGeometry>
        </mxCell>
        <mxCell id="9mjmYlbsUAJnvYcBJI2K-51" value="" style="endArrow=diamondThin;endFill=0;endSize=24;html=1;rounded=0;entryX=0.75;entryY=0;entryDx=0;entryDy=0;" edge="1" parent="1" source="9mjmYlbsUAJnvYcBJI2K-4" target="9mjmYlbsUAJnvYcBJI2K-22">
          <mxGeometry width="160" relative="1" as="geometry">
            <mxPoint x="-53" y="685" as="sourcePoint" />
            <mxPoint x="-90" y="600" as="targetPoint" />
            <Array as="points">
              <mxPoint x="-280" y="650" />
              <mxPoint x="-47" y="650" />
            </Array>
          </mxGeometry>
        </mxCell>
        <mxCell id="9mjmYlbsUAJnvYcBJI2K-52" value="" style="endArrow=diamondThin;endFill=0;endSize=24;html=1;rounded=0;entryX=0.879;entryY=0.011;entryDx=0;entryDy=0;entryPerimeter=0;exitX=0;exitY=0.25;exitDx=0;exitDy=0;" edge="1" parent="1" source="9mjmYlbsUAJnvYcBJI2K-38" target="9mjmYlbsUAJnvYcBJI2K-22">
          <mxGeometry width="160" relative="1" as="geometry">
            <mxPoint x="-60" y="170" as="sourcePoint" />
            <mxPoint x="163" y="690" as="targetPoint" />
            <Array as="points">
              <mxPoint y="90" />
              <mxPoint y="140" />
            </Array>
          </mxGeometry>
        </mxCell>
        <mxCell id="9mjmYlbsUAJnvYcBJI2K-53" value="" style="endArrow=diamondThin;endFill=0;endSize=24;html=1;rounded=0;exitX=0.49;exitY=1.048;exitDx=0;exitDy=0;exitPerimeter=0;" edge="1" parent="1" source="9mjmYlbsUAJnvYcBJI2K-8">
          <mxGeometry width="160" relative="1" as="geometry">
            <mxPoint x="-340" y="540" as="sourcePoint" />
            <mxPoint x="-107" y="790" as="targetPoint" />
            <Array as="points">
              <mxPoint x="-527" y="680" />
              <mxPoint x="-107" y="680" />
            </Array>
          </mxGeometry>
        </mxCell>
        <mxCell id="9mjmYlbsUAJnvYcBJI2K-54" value="" style="endArrow=diamondThin;endFill=0;endSize=24;html=1;rounded=0;exitX=1;exitY=0.5;exitDx=0;exitDy=0;entryX=0.664;entryY=0.001;entryDx=0;entryDy=0;entryPerimeter=0;" edge="1" parent="1" source="9mjmYlbsUAJnvYcBJI2K-19" target="9mjmYlbsUAJnvYcBJI2K-22">
          <mxGeometry width="160" relative="1" as="geometry">
            <mxPoint x="-153" y="325" as="sourcePoint" />
            <mxPoint x="-190" y="240" as="targetPoint" />
            <Array as="points">
              <mxPoint x="-78" y="160" />
            </Array>
          </mxGeometry>
        </mxCell>
        <mxCell id="9mjmYlbsUAJnvYcBJI2K-56" value="" style="endArrow=diamondThin;endFill=0;endSize=24;html=1;rounded=0;exitX=0.531;exitY=1.034;exitDx=0;exitDy=0;exitPerimeter=0;" edge="1" parent="1" source="9mjmYlbsUAJnvYcBJI2K-25">
          <mxGeometry width="160" relative="1" as="geometry">
            <mxPoint x="90" y="1220" as="sourcePoint" />
            <mxPoint x="250" y="720" as="targetPoint" />
            <Array as="points">
              <mxPoint x="-120" y="1280" />
              <mxPoint x="160" y="1280" />
              <mxPoint x="160" y="720" />
            </Array>
          </mxGeometry>
        </mxCell>
      </root>
    </mxGraphModel>
  </diagram>
</mxfile>
